<svg xmlns="http://www.w3.org/2000/svg" viewBox="0 0 352 322" width="352" height="322">
<path d="M 154.50 288.51 C 150.65 287.84 143.45 286.73 138.50 286.05 C 133.55 285.37 127.70 284.29 125.50 283.65 L 121.50 282.50 L 121.21 271.50 C 121.05 265.45 121.15 259.58 121.42 258.46 C 121.98 256.23 122.03 256.22 148.28 251.14 C 156.40 249.57 163.27 248.06 163.54 247.79 C 163.81 247.52 162.88 236.99 161.46 224.40 C 160.05 211.80 158.49 197.90 158.00 193.50 C 157.50 189.10 156.79 182.69 156.41 179.25 L 155.72 173.00 L 126.54 173.00 C 110.50 173.00 94.92 172.59 91.93 172.08 C 88.95 171.57 80.88 170.43 74.00 169.54 C 61.36 167.91 52.03 166.59 42.00 165.01 C 38.98 164.53 31.84 163.58 26.15 162.90 C 20.15 162.18 15.20 161.06 14.40 160.25 C 12.53 158.39 12.35 126.05 14.20 124.20 C 14.86 123.54 17.67 123.01 20.45 123.01 C 23.23 123.02 30.90 122.58 37.50 122.05 C 72.25 119.23 84.57 118.62 118.00 118.09 L 154.49 117.50 L 155.68 105.50 C 157.95 82.49 158.27 80.52 160.19 77.78 C 161.24 76.28 163.39 74.29 164.98 73.35 C 166.99 72.16 168.50 69.90 169.98 65.83 C 171.55 61.53 172.60 60.00 174.00 60.00 C 175.40 60.00 176.45 61.53 178.02 65.83 C 179.50 69.90 181.01 72.16 183.02 73.35 C 189.33 77.08 189.78 78.65 192.35 105.50 L 193.50 117.50 L 230.00 118.09 C 263.43 118.62 275.75 119.23 310.50 122.05 C 317.10 122.58 324.77 123.02 327.55 123.01 C 330.33 123.01 333.14 123.54 333.80 124.20 C 335.65 126.05 335.47 158.39 333.60 160.25 C 332.80 161.06 327.85 162.18 321.85 162.90 C 316.16 163.58 309.02 164.55 306.00 165.05 C 302.98 165.55 291.95 167.10 281.50 168.50 C 271.05 169.90 261.38 171.31 260.00 171.64 C 258.62 171.98 242.90 172.53 225.05 172.87 L 192.61 173.50 L 191.45 182.00 C 190.82 186.68 189.75 195.45 189.09 201.50 C 188.43 207.55 187.26 217.90 186.50 224.50 C 183.65 249.18 183.70 247.77 185.69 248.35 C 186.68 248.64 193.57 250.02 201.00 251.42 C 220.75 255.15 225.42 256.26 226.23 257.44 C 226.64 258.02 226.98 263.77 226.98 270.21 C 227.00 280.64 226.79 282.04 225.13 282.93 C 224.11 283.48 215.44 285.11 205.88 286.56 C 179.47 290.56 179.80 290.55 177.59 288.10 C 175.20 285.46 172.83 285.43 170.50 288.00 C 168.43 290.29 165.25 290.39 154.50 288.51 Z M 180.55 180.55 C 185.47 175.62 183.14 173.00 173.84 173.00 C 168.07 173.00 166.91 173.30 165.99 175.02 C 164.88 177.10 165.20 178.22 167.81 181.25 C 170.18 184.01 177.48 183.61 180.55 180.55 Z M 185.24 113.00 C 184.92 109.90 181.99 107.38 176.97 105.87 C 173.58 104.86 172.58 105.00 168.32 107.11 C 164.20 109.15 163.45 109.98 163.18 112.78 L 162.87 116.07 L 174.18 115.78 L 185.50 115.50 L 185.24 113.00 Z M 341.16 12.00 C 341.16 10.62 341.38 10.06 341.66 10.75 C 341.94 11.44 341.94 12.56 341.66 13.25 C 341.38 13.94 341.16 13.38 341.16 12.00 Z " fill="#000000" fill-rule="evenodd"/>
</svg>
