<svg xmlns="http://www.w3.org/2000/svg" viewBox="0 0 658 574" width="658" height="574">
<path d="M 321.66 534.75 C 321.32 530.21 320.78 521.10 320.46 514.50 C 319.45 493.09 315.60 452.88 313.00 436.50 C 312.48 433.20 311.79 427.80 311.47 424.50 C 311.15 421.20 310.47 416.48 309.95 414.00 C 309.44 411.52 308.59 405.45 308.07 400.50 C 307.55 395.55 306.18 384.30 305.02 375.50 C 303.87 366.70 302.50 355.90 301.98 351.50 C 301.06 343.61 300.24 337.68 297.48 319.00 C 293.78 293.96 290.32 261.25 289.35 242.06 L 288.69 229.00 L 291.72 229.00 C 293.39 229.00 296.82 227.84 299.36 226.42 C 306.57 222.39 320.14 220.55 332.00 222.00 C 340.68 223.06 351.02 226.60 352.52 229.03 C 352.79 229.46 353.86 229.59 354.92 229.31 C 358.68 228.33 359.05 231.55 357.46 251.64 C 354.92 283.83 354.13 292.30 353.10 298.50 C 352.56 301.80 351.39 310.57 350.51 318.00 C 349.63 325.43 348.49 333.98 347.98 337.00 C 347.46 340.02 346.60 346.32 346.06 351.00 C 345.52 355.68 344.12 366.70 342.95 375.50 C 341.77 384.30 340.20 396.45 339.45 402.50 C 338.16 412.87 337.16 420.22 333.51 446.50 C 331.56 460.52 329.27 484.16 327.95 504.00 C 326.22 529.97 325.25 540.79 324.55 541.92 C 323.01 544.41 322.26 542.54 321.66 534.75 Z M 290.00 508.89 C 284.91 507.64 248.46 501.20 242.00 500.41 C 238.97 500.04 235.94 499.29 235.25 498.74 C 234.42 498.09 234.00 494.79 234.00 488.88 C 234.00 477.36 232.17 477.25 231.79 488.75 L 231.50 497.50 L 228.66 497.82 C 224.49 498.30 218.68 494.03 216.01 488.52 C 214.35 485.09 213.75 481.94 213.65 476.21 C 213.51 467.31 215.27 462.93 219.70 461.18 C 225.79 458.77 251.82 452.35 277.32 446.96 C 284.92 445.35 292.91 443.58 295.07 443.02 C 297.23 442.46 300.84 441.52 303.10 440.93 C 305.35 440.34 307.34 440.01 307.51 440.18 C 307.91 440.59 310.62 457.08 311.96 467.22 C 312.59 472.02 312.62 475.86 312.05 477.37 C 311.31 479.31 311.55 480.18 313.19 481.65 C 315.07 483.34 315.19 484.25 314.63 492.28 C 313.64 506.43 310.55 510.09 299.79 509.87 C 296.33 509.80 291.93 509.36 290.00 508.89 Z M 338.47 508.22 C 335.18 505.43 333.27 500.03 332.56 491.45 C 331.95 484.07 332.07 483.24 334.01 481.50 C 335.42 480.21 335.93 478.86 335.56 477.37 C 334.67 473.85 338.77 441.89 340.30 440.36 C 340.60 440.06 342.35 440.30 344.18 440.89 C 347.54 441.97 352.35 443.08 370.50 446.94 C 376.00 448.11 382.79 449.73 385.59 450.54 C 388.39 451.34 391.57 452.00 392.66 452.00 C 393.75 452.00 396.64 452.63 399.07 453.41 C 401.51 454.18 408.23 456.02 414.00 457.50 C 427.75 461.01 429.69 461.79 432.03 464.77 C 434.53 467.95 434.74 479.47 432.42 486.28 C 430.29 492.52 424.25 498.00 419.50 498.00 L 416.00 498.00 L 416.00 489.00 C 416.00 481.94 415.70 480.00 414.60 480.00 C 413.57 480.00 413.29 481.02 413.56 483.75 C 415.08 498.95 414.94 499.29 406.50 500.44 C 394.01 502.14 362.31 507.30 353.67 509.03 C 346.47 510.48 340.78 510.17 338.47 508.22 Z M 276.00 265.84 C 272.98 265.47 264.88 264.46 258.00 263.59 C 251.12 262.73 240.78 261.56 235.00 260.99 C 229.22 260.43 223.82 259.76 223.00 259.51 C 222.18 259.26 216.78 258.60 211.00 258.04 C 205.22 257.49 196.68 256.59 192.00 256.04 C 187.32 255.49 178.14 254.58 171.58 254.00 C 165.02 253.43 159.01 252.42 158.22 251.77 C 156.65 250.46 157.09 242.53 159.01 237.47 L 160.02 234.81 L 174.26 235.46 C 182.09 235.81 191.43 236.53 195.00 237.07 C 198.57 237.60 208.25 238.46 216.50 238.97 C 240.53 240.47 280.55 243.89 282.45 244.62 C 283.23 244.92 284.05 247.49 284.42 250.82 C 284.76 253.94 285.29 258.58 285.60 261.12 C 286.11 265.37 285.97 265.77 283.83 266.13 C 282.55 266.34 279.02 266.21 276.00 265.84 Z M 362.69 266.18 C 361.31 265.91 361.06 265.18 361.51 262.67 C 361.83 260.93 362.64 256.12 363.32 252.00 L 364.55 244.50 L 376.02 243.27 C 382.34 242.60 396.50 241.36 407.50 240.52 C 418.50 239.68 432.90 238.54 439.50 238.00 C 466.99 235.71 487.14 234.74 488.05 235.65 C 489.41 237.01 491.25 247.86 490.58 250.55 C 490.07 252.57 489.19 252.92 483.25 253.48 C 479.54 253.82 471.10 254.75 464.50 255.53 C 457.90 256.31 448.00 257.41 442.50 257.97 C 437.00 258.53 424.62 259.90 415.00 261.02 C 376.83 265.45 364.99 266.62 362.69 266.18 Z M 139.00 251.01 C 134.32 250.63 129.57 250.02 128.44 249.65 C 127.30 249.28 122.13 248.55 116.94 248.01 C 111.75 247.48 102.55 246.37 96.50 245.56 C 90.45 244.75 79.90 243.37 73.06 242.51 C 66.22 241.64 60.03 240.44 59.31 239.84 C 57.64 238.46 57.60 230.58 59.25 229.21 C 60.60 228.09 76.32 228.73 113.50 231.43 C 125.05 232.27 138.65 233.25 143.73 233.61 C 154.42 234.38 154.60 234.56 153.49 244.09 C 152.84 249.72 151.08 252.35 148.32 251.85 C 147.87 251.77 143.68 251.39 139.00 251.01 Z M 495.04 249.07 C 493.80 246.77 493.68 237.05 494.86 235.20 C 495.73 233.81 498.40 233.50 517.50 232.52 C 524.10 232.18 537.60 231.28 547.50 230.52 C 557.40 229.75 570.53 228.85 576.69 228.51 C 587.16 227.94 587.94 228.03 588.94 229.88 C 589.52 230.98 590.00 233.16 590.00 234.74 C 590.00 240.21 588.54 240.96 574.73 242.54 C 567.73 243.34 556.26 244.70 549.25 245.56 C 542.24 246.42 532.67 247.53 528.00 248.02 C 523.33 248.52 517.08 249.39 514.11 249.96 C 511.15 250.53 505.88 251.00 502.40 251.00 C 497.17 251.00 495.89 250.67 495.04 249.07 Z M 42.53 238.93 C 32.00 237.17 22.10 230.01 17.92 221.11 C 12.72 210.05 11.40 185.90 15.54 177.51 C 17.81 172.89 23.08 169.00 27.07 169.00 C 29.39 169.00 30.04 169.61 31.06 172.75 C 31.74 174.81 32.90 177.39 33.64 178.47 C 34.89 180.28 35.00 180.10 35.00 176.33 C 35.00 168.52 35.76 168.22 58.50 167.08 C 89.13 165.55 114.21 164.06 128.00 162.93 C 134.88 162.37 149.05 161.50 159.50 160.99 C 169.95 160.49 185.70 159.63 194.50 159.10 C 203.30 158.56 219.95 157.61 231.50 156.99 C 243.05 156.36 258.55 155.44 265.94 154.94 C 277.81 154.13 279.58 154.22 281.19 155.67 C 282.88 157.20 283.00 159.96 283.00 197.76 L 283.00 238.21 L 271.25 237.67 C 249.68 236.68 224.70 235.09 222.09 234.54 C 219.76 234.05 199.50 232.43 165.50 230.03 C 158.90 229.57 146.53 228.68 138.00 228.07 C 129.47 227.45 116.65 226.53 109.50 226.02 C 70.79 223.23 56.81 222.63 55.18 223.69 C 53.85 224.55 53.55 226.09 53.75 231.03 C 54.12 240.16 53.30 240.73 42.53 238.93 Z M 595.17 238.71 C 594.58 238.00 593.97 234.29 593.80 230.46 L 593.50 223.50 L 589.50 223.14 C 585.81 222.81 571.38 223.60 537.00 226.03 C 491.87 229.21 479.30 230.13 469.00 231.03 C 462.68 231.58 450.33 232.50 441.56 233.08 C 432.79 233.65 425.29 234.32 424.88 234.57 C 423.78 235.26 387.98 237.33 375.71 237.42 L 364.91 237.50 L 364.98 197.55 C 365.05 150.73 364.40 153.57 374.94 154.48 C 378.55 154.79 390.73 155.50 402.00 156.04 C 413.27 156.58 431.73 157.47 443.00 158.02 C 454.27 158.56 469.80 159.44 477.50 159.97 C 485.20 160.49 496.90 161.17 503.50 161.48 C 510.10 161.78 521.35 162.47 528.50 163.01 C 539.85 163.87 573.84 165.97 601.42 167.50 C 606.32 167.78 610.58 168.24 610.87 168.54 C 611.17 168.83 611.57 172.10 611.77 175.79 C 612.30 185.69 613.02 186.31 614.91 178.47 C 617.03 169.70 617.47 169.00 620.91 169.00 C 624.61 169.00 629.90 172.67 632.45 177.00 C 634.24 180.06 634.50 182.18 634.50 194.00 C 634.50 205.46 634.15 208.55 632.18 214.42 C 627.37 228.79 619.01 236.37 605.11 238.99 C 598.08 240.31 596.47 240.27 595.17 238.71 Z M 287.46 212.25 C 286.44 196.02 287.67 131.83 289.37 113.00 C 291.49 89.43 292.93 86.37 303.69 82.50 C 306.75 81.40 309.19 80.05 309.12 79.50 C 309.04 78.95 306.62 78.58 303.74 78.67 C 272.74 79.67 256.00 78.92 256.00 76.52 C 256.00 74.62 258.14 74.05 269.92 72.85 C 279.59 71.86 298.23 72.24 307.00 73.61 C 309.77 74.04 311.33 73.57 314.50 71.34 C 320.26 67.29 327.96 67.32 333.31 71.41 L 337.12 74.33 L 344.81 73.16 C 354.22 71.73 367.51 71.68 379.50 73.03 C 390.30 74.26 392.00 74.72 392.00 76.47 C 392.00 78.96 364.65 80.27 347.25 78.62 C 339.46 77.88 338.00 77.97 338.00 79.18 C 338.00 80.07 340.25 81.30 343.90 82.39 C 354.39 85.53 356.68 90.07 358.61 111.50 C 360.12 128.32 360.49 207.59 359.07 209.89 C 357.86 211.85 356.39 208.84 355.47 202.50 C 353.55 189.40 346.98 184.15 330.50 182.54 C 321.92 181.71 306.53 183.51 302.61 185.81 C 295.11 190.19 290.00 203.06 290.00 217.56 C 290.00 228.39 288.24 224.72 287.46 212.25 Z " fill="#000000" fill-rule="evenodd"/>
</svg>
