<svg xmlns="http://www.w3.org/2000/svg" viewBox="0 0 488 388" width="488" height="388">
<path d="M 240.69 360.63 C 240.40 359.87 239.86 357.25 239.49 354.79 C 239.12 352.34 238.45 349.72 237.98 348.97 C 237.33 347.92 231.45 347.45 211.82 346.88 C 197.90 346.48 185.94 346.11 185.25 346.07 C 184.56 346.03 183.10 345.10 182.00 344.00 C 180.23 342.23 180.00 340.67 180.00 330.61 C 180.00 314.90 179.99 314.91 195.59 313.90 C 213.53 312.75 233.04 310.75 233.49 310.02 C 233.87 309.39 233.08 302.09 231.03 287.50 C 230.49 283.65 229.35 273.75 228.51 265.50 C 227.66 257.25 226.55 247.35 226.03 243.50 C 225.51 239.65 224.38 231.10 223.52 224.50 C 222.66 217.90 221.52 209.35 221.00 205.50 C 220.47 201.65 219.77 196.25 219.44 193.50 C 219.11 190.75 218.19 187.99 217.40 187.37 C 215.77 186.10 199.54 183.37 152.50 176.46 C 140.88 174.75 140.37 174.67 120.19 171.40 C 106.03 169.11 93.06 167.17 67.50 163.52 C 59.12 162.33 47.35 160.46 29.29 157.46 C 27.49 157.16 25.19 155.79 24.04 154.33 C 22.18 151.96 22.00 150.33 22.00 135.92 C 22.00 120.65 22.08 120.02 24.41 117.31 L 26.83 114.50 L 75.16 114.00 L 123.50 113.50 L 124.02 108.99 C 124.92 101.13 131.64 92.50 135.66 94.04 C 139.25 95.42 144.27 103.72 144.79 109.17 L 145.25 114.00 L 180.02 114.00 C 210.80 114.00 214.86 113.82 215.39 112.42 C 215.73 111.55 216.00 102.44 216.01 92.17 C 216.01 81.73 216.50 71.74 217.11 69.50 C 218.31 65.11 234.81 38.46 238.79 34.49 C 242.00 31.28 246.96 31.18 250.43 34.25 C 252.76 36.32 257.97 45.46 266.25 62.00 L 269.50 68.50 L 270.00 91.00 L 270.50 113.50 L 305.47 113.50 L 340.44 113.50 L 341.21 109.04 C 342.13 103.60 346.70 95.96 350.02 94.30 C 352.13 93.25 352.77 93.38 354.79 95.28 C 358.64 98.89 361.43 104.21 361.98 108.99 L 362.50 113.50 L 410.84 114.00 L 459.17 114.50 L 461.59 117.31 C 463.92 120.02 464.00 120.65 464.00 136.00 C 464.00 157.18 464.85 156.18 444.00 159.56 C 435.48 160.95 424.00 162.70 418.50 163.46 C 404.19 165.44 382.87 168.66 365.50 171.46 C 347.32 174.40 346.10 174.59 333.50 176.44 C 328.00 177.25 315.85 179.08 306.50 180.51 C 297.15 181.94 286.95 183.49 283.83 183.97 C 280.71 184.44 275.73 185.33 272.76 185.95 L 267.37 187.07 L 265.63 201.28 C 264.68 209.10 263.47 217.97 262.96 221.00 C 262.45 224.03 261.55 230.55 260.98 235.50 C 260.40 240.45 259.48 248.32 258.92 253.00 C 258.36 257.68 257.25 267.35 256.46 274.50 C 255.66 281.65 254.37 292.45 253.58 298.50 C 252.79 304.55 252.45 309.77 252.83 310.11 C 253.72 310.91 272.58 312.82 287.00 313.57 C 299.37 314.21 303.53 315.24 305.04 318.07 C 305.57 319.06 306.00 324.85 306.00 330.93 C 306.00 340.67 305.76 342.24 304.00 344.00 C 302.90 345.10 301.44 346.04 300.75 346.08 C 300.06 346.12 288.11 346.47 274.20 346.86 C 246.16 347.63 247.65 347.20 246.51 354.79 C 245.59 360.92 245.07 362.00 243.00 362.00 C 242.02 362.00 240.98 361.38 240.69 360.63 Z " fill="#000000" fill-rule="evenodd"/>
</svg>
